<?xml version="1.0" encoding="UTF-8" standalone="no"?>
<!-- Created with Inkscape (http://www.inkscape.org/) -->

<svg
   version="1.1"
   id="svg824"
   width="442"
   height="264"
   viewBox="0 0 442 264"
   sodipodi:docname="bottleneck_logo.svg"
   inkscape:export-filename="C:\Users\miste\OpenClassrooms\Projet 5\image.png"
   inkscape:export-xdpi="125.021"
   inkscape:export-ydpi="125.021"
   inkscape:version="1.1 (c68e22c387, 2021-05-23)"
   xmlns:inkscape="http://www.inkscape.org/namespaces/inkscape"
   xmlns:sodipodi="http://sodipodi.sourceforge.net/DTD/sodipodi-0.dtd"
   xmlns="http://www.w3.org/2000/svg"
   xmlns:svg="http://www.w3.org/2000/svg">
  <defs
     id="defs828" />
  <sodipodi:namedview
     id="namedview826"
     pagecolor="#505050"
     bordercolor="#eeeeee"
     borderopacity="1"
     inkscape:pageshadow="0"
     inkscape:pageopacity="0"
     inkscape:pagecheckerboard="0"
     showgrid="false"
     inkscape:snap-global="false"
     inkscape:zoom="1.3563348"
     inkscape:cx="220.0784"
     inkscape:cy="65.249374"
     inkscape:window-width="1920"
     inkscape:window-height="1009"
     inkscape:window-x="-8"
     inkscape:window-y="-8"
     inkscape:window-maximized="1"
     inkscape:current-layer="g830" />
  <g
     inkscape:groupmode="layer"
     inkscape:label="Image"
     id="g830">
    <rect
       style="fill:#ffffff;fill-opacity:1;stroke:none;stroke-width:5;stroke-linecap:round;stroke-linejoin:round;paint-order:fill markers stroke"
       id="rect18664"
       width="442"
       height="264"
       x="0.21593159"
       y="-0.30539641" />
    <g
       id="g1447" />
    <g
       id="g14269"
       transform="translate(299.33611,185.05755)">
      <path
         style="fill:#a62537"
         d="m -110.85047,-31.56575 c -21.23491,-4.50776 -36.1949,-23.14293 -36.24861,-45.15369 -0.0391,-16.008498 6.36267,-29.00748 18.60176,-37.7717 15.7246,-11.26014 38.199888,-10.6757 53.576908,1.39319 6.55887,5.14784 13.16002,14.651488 15.55944,22.400889 2.55344,8.246851 2.2311,22.845271 -0.67007,30.347051 -4.75146,12.28621 -14.67261,22.14932 -26.98586,26.82799 -6.04147,2.29557 -17.719678,3.25413 -23.833568,1.95627 z m 3.83242,-52.29266 c 7.233088,-4.861189 5.72262,-14.670453 -2.71342,-17.62146 -7.26385,-2.54096 -14.09448,1.27558 -15.04575,8.40665 -1.22001,9.14566 9.54835,14.7331 17.75917,9.21481 z m 56.316318,-5.634052 c -3.94921,-1.69471 -7.41844,-6.93646 -7.41844,-11.208708 0,-5.95756 2.2503,-9.42188 7.39681,-11.38735 3.6732,-1.40281 5.05194,-1.49327 7.98857,-0.52409 8.78533,2.89942 11.51953,12.897386 5.36402,19.614217 -3.47354,3.790292 -9.17448,5.289589 -13.33096,3.505931 z m -21.36047,-30.259738 c -6.8682,-3.59113 -10.34504,-8.64318 -10.86143,-15.78225 -0.82986,-11.4727 6.15674,-19.90752 17.25159,-20.82759 9.24197,-0.76641 15.91492,2.65825 19.72263,10.12197 4.43015,8.68382 1.66151,20.10083 -6.12387,25.25296 -5.74367,3.80097 -14.0945,4.31689 -19.98892,1.23491 z"
         id="path14273"
         sodipodi:nodetypes="ssssssssssssssssssssssss" />
    </g>
    <g
       id="g14397"
       transform="matrix(0.19270574,0,0,0.19270574,135.19478,133.15296)">
      <path
         style="fill:#ad283b;fill-opacity:1"
         d="m 820.06509,378.64663 c -19.57047,-3.83965 -38.48701,-15.83611 -49.67293,-31.50149 -18.66288,-26.13656 -20.1954,-58.00081 -4.13191,-85.91125 4.82327,-8.38048 18.75814,-22.5087 26.98026,-27.35461 13.12626,-7.7363 25.65391,-11.11066 41.24939,-11.11066 22.5838,0 40.17672,7.45117 56.5,23.92958 12.16767,12.28332 19.93009,28.58054 21.86946,45.91506 1.39497,12.4685 -0.66645,18.31634 -7.97399,22.62063 -3.26206,1.92142 -5.46798,2.01115 -56.14547,2.28368 -34.52735,0.18568 -52.75,0.63126 -52.75,1.28984 0,4.81211 11.42113,18.06003 18.82682,21.83813 12.44138,6.34712 26.38645,6.58361 38.8619,0.65904 11.95368,-5.67678 20.71453,-4.45176 26.07324,3.64579 3.25367,4.91663 4.15263,13.11422 1.91304,17.4451 -5.61735,10.86276 -23.25627,17.36052 -46.675,17.19397 -5.775,-0.0411 -12.49117,-0.46534 -14.92481,-0.94281 z m 55.90285,-92.66274 c -0.0453,-3.60817 -4.10021,-10.52656 -9.4682,-16.15433 -7.79537,-8.17264 -16.66875,-12.18478 -28.43157,-12.85546 -13.8712,-0.7909 -24.27621,3.0895 -33.57467,12.52118 -4.57019,4.63567 -10.92411,15.74919 -9.92684,17.36282 0.2977,0.48168 18.73972,0.87579 40.98226,0.87579 37.85692,0 40.43958,-0.11182 40.41902,-1.75 z m 119.02196,93.12394 c -14.86369,-2.89427 -26.68714,-8.15935 -37.73501,-16.80371 -12.23116,-9.57023 -20.48547,-21.38928 -25.88946,-37.07023 -2.49803,-7.2486 -2.76254,-9.36191 -2.81625,-22.5 -0.0698,-17.06482 1.20073,-22.95082 7.87856,-36.5 9.62329,-19.52547 26.64159,-33.76131 48.60523,-40.65836 6.43275,-2.02003 9.51711,-2.34164 22.45693,-2.34164 17.3677,0 23.4026,1.25702 36.24,7.54856 9.543,4.67696 19.6803,13.48133 22.3963,19.45144 3.8973,8.56651 1.1929,17.43275 -6.8787,22.55161 -3.3132,2.10119 -5.9002,2.94839 -9.003,2.94839 -4.9965,0 -8.0482,-1.4055 -17.585,-8.09881 -9.3376,-6.55351 -15.0026,-8.33138 -26.6696,-8.36986 -8.65317,-0.0285 -10.10382,0.25469 -16.27383,3.17728 -4.20683,1.99268 -8.86475,5.29954 -12.29139,8.72617 -20.85827,20.85828 -15.11407,55.22416 11.42282,68.33941 7.22752,3.57203 7.95355,3.72367 17.5906,3.67386 12.2085,-0.0631 16.5005,-1.56418 28.4863,-9.96286 7.3945,-5.18148 9.0579,-5.92446 13.9794,-6.24424 13.8364,-0.89904 23.1301,12.77389 17.1206,25.18786 -4.596,9.49397 -21.3184,20.96741 -36.5345,25.06668 -5.9127,1.59291 -29.3991,2.87169 -34.5,1.87845 z m -403.5,-2.94653 c -4.63021,-2.40813 -7.30071,-5.33871 -9.05803,-9.94019 -1.406,-3.68155 -1.55403,-9.04147 -1.17657,-42.59933 0.48716,-43.31102 0.5042,-43.43199 8.43259,-59.87129 3.95148,-8.19326 5.88161,-10.78966 14.18785,-19.08531 7.89655,-7.88649 11.13272,-10.34699 18.11416,-13.77245 20.41748,-10.01785 44.17545,-11.00288 64.01158,-2.65397 22.33062,9.39883 38.79259,28.76748 44.96553,52.90509 1.85571,7.25624 2.02289,11.04057 2.02289,45.78984 0,35.76187 -0.11056,38.09659 -1.97736,41.75582 -2.84618,5.57898 -7.25827,8.36147 -14.0358,8.85171 -7.23223,0.52314 -12.87883,-2.17673 -16.73572,-8.002 l -2.75112,-4.15517 -0.5,-38.57508 -0.5,-38.57508 -2.82151,-5.74766 c -4.15249,-8.45896 -11.60016,-16.09591 -19.48308,-19.97823 -6.29195,-3.09877 -7.23834,-3.27411 -17.67169,-3.27411 -9.84709,0 -11.62947,0.28396 -16.69887,2.66041 -10.61642,4.97679 -18.27329,14.33434 -21.42992,26.18978 -1.03824,3.89932 -1.37407,13.79254 -1.38306,40.74253 -0.0118,35.30978 -0.0303,35.62775 -2.33689,40 -3.01208,5.70965 -8.41122,8.87075 -15.17498,8.88467 -2.75,0.006 -6.35,-0.69183 -8,-1.54998 z m 507,-0.29811 c -3.982,-2.47316 -7.1261,-5.99414 -8.4334,-9.4444 -0.7272,-1.91927 -1.0666,-31.92208 -1.0666,-94.28212 0,-99.45382 -0.2435,-95.10042 5.6269,-100.58916 9.1642,-8.56848 23.197,-5.76697 28.4831,5.68638 1.7114,3.70815 1.8477,7.45354 1.8681,51.33333 0.013,27.59667 0.397,47.19435 0.9213,47 0.4947,-0.18333 12.5322,-11.08206 26.75,-24.2194 14.2179,-13.13733 27.2987,-24.49983 29.0685,-25.25 8.1454,-3.45251 18.6241,0.66009 22.9694,9.01491 1.8577,3.57177 2.0355,10.46192 0.3736,14.47428 -1.0615,2.56264 -45.4792,44.94472 -48.1887,45.98021 -0.4797,0.18334 -0.8722,0.71844 -0.8722,1.18912 0,0.47068 12.4013,12.41415 27.5585,26.54106 15.1571,14.1269 28.163,26.6418 28.9018,27.81088 3.6956,5.84742 2.5617,14.25313 -2.7367,20.2877 -5.5059,6.27078 -12.713,7.92093 -19.9237,4.56169 -2.0351,-0.94808 -14.8208,-12.07378 -28.4127,-24.72378 -13.592,-12.65 -27.3394,-25.40026 -30.5499,-28.3339 l -5.8373,-5.33391 -0.024,21.33391 c -0.013,11.73364 -0.4332,23.09907 -0.9336,25.25651 -1.1054,4.76614 -3.6366,8.33564 -8.0324,11.32739 -4.292,2.92115 -13.1099,3.11216 -17.5101,0.3793 z"
         id="path1224"
         sodipodi:nodetypes="sssssssssssssssssssssssssssssssssssssssssssssssssssssssscccssssssscsssssssssssssssssssscssssss" />
      <path
         style="fill:#000000"
         d="m -272.1544,377.63549 c -28.42888,-5.93486 -52.02597,-28.43129 -60.10688,-57.30326 -2.12365,-7.5875 -2.16968,-9.13475 -2.20883,-74.24898 l -0.04,-66.5 2.73586,-4.65395 c 7.23007,-12.29899 24.969,-11.41474 30.85102,1.53787 1.69743,3.73786 1.87121,7.01514 1.89116,35.66515 l 0.022,31.54906 5.79502,-5.63549 c 10.86563,-10.56651 25.09774,-15.5739 41.70497,-14.67339 33.33723,1.80767 62.24981,25.67808 71.11228,58.71075 2.66754,9.94261 2.44043,29.16552 -0.466,39.44341 -7.33366,25.93369 -27.22696,46.16123 -53.64628,54.54763 -8.92898,2.83437 -27.79724,3.61688 -37.64429,1.5612 z m 28.85379,-36.15445 c 7.69045,-2.11118 16.96377,-8.89699 21.7831,-15.93992 5.92019,-8.65172 7.85241,-15.63717 7.27161,-26.28859 -0.64813,-11.88611 -3.39556,-18.63303 -10.81924,-26.56896 -17.59974,-18.81418 -47.93113,-17.94666 -64.07668,1.83267 -17.23814,21.11785 -10.59797,52.1895 13.7218,64.20898 10.54525,5.21174 20.16624,6.03722 32.11941,2.75582 z m 141.65583,36.10904 c -13.86988,-3.01643 -26.10734,-9.58607 -37.07547,-19.90386 -18.34389,-17.25622 -27.58767,-42.04945 -24.45366,-65.58846 4.21645,-31.66903 25.32319,-56.53672 56.16381,-66.17147 6.48653,-2.02642 9.45937,-2.33291 22,-2.26812 12.93581,0.0668 15.363,0.36318 22.5,2.74717 26.20119,8.75207 45.90285,29.51499 52.57234,55.40425 2.50742,9.73317 2.74649,26.93128 0.50852,36.58123 -5.72265,24.67559 -23.86461,45.769 -47.61617,55.36268 -12.90687,5.21332 -31.08048,6.77667 -44.59937,3.83658 z m 172.63468,-0.5105 c -29.16033,-7.22734 -51.44364,-30.32933 -57.49014,-59.60232 -1.24862,-6.04494 -1.50986,-17.7053 -1.50986,-67.39169 0,-57.82522 0.0741,-60.22719 1.9721,-63.94763 5.01248,-9.82528 16.74622,-12.81571 26.07152,-6.64452 6.52525,4.31821 7.38852,6.98622 7.95638,24.58983 l 0.5,15.5 30.5,0.5 c 32.0283,0.52506 32.57944,0.60333 37.84501,5.37497 7.94636,7.20093 6.49318,21.14005 -2.80692,26.92444 -3.39561,2.11197 -4.78651,2.22073 -34.53809,2.70059 l -31,0.5 -0.29921,24 c -0.32384,25.97525 0.39194,32.61719 4.43916,41.19221 7.17455,15.201 23.59488,24.42044 40.89717,22.96233 9.4337,-0.79501 13.82027,-2.49058 23.37869,-9.03671 4.43602,-3.03803 9.57196,-5.80631 11.41319,-6.15173 3.61272,-0.67775 9.70319,1.34807 12.98678,4.31968 5.56965,5.04046 6.59958,15.27019 2.27957,22.64172 -5.04544,8.6094 -21.70713,18.69083 -36.29276,21.95953 -9.78731,2.19338 -26.6069,2.01236 -36.30259,-0.3907 z m 152.50117,-0.10501 c -26.73626,-6.5643 -48.82538,-28.14537 -56.21592,-54.92297 -1.62779,-5.89786 -1.78525,-12.11986 -1.78525,-70.54598 v -64.07764 l 2.89153,-3.7912 c 8.1938,-10.7432 24.68754,-9.28454 30.48732,2.69622 1.8663,3.85526 2.12115,6.14596 2.12115,19.06598 v 14.68427 l 29.75,0.022 c 26.89271,0.0198 30.14532,0.20149 33.86609,1.89116 5.89987,2.67924 9.62884,7.9953 10.16789,14.49545 0.4929,5.94373 -0.94475,9.56255 -5.4447,13.70537 -4.93357,4.54201 -7.68385,4.88606 -39.0581,4.88606 h -29.42037 l 0.34557,28.25 c 0.38873,31.77904 0.82755,34.04922 8.54477,44.20544 8.25103,10.85872 18.48859,15.85097 32.74885,15.96965 11.58991,0.0965 17.86363,-1.95061 27.29168,-8.90509 8.80655,-6.49604 13.11381,-7.54009 19.48323,-4.72259 6.05328,2.67765 9.0202,7.13434 9.5408,14.33151 0.32142,4.44369 -0.0691,6.76308 -1.7092,10.15105 -4.26108,8.80222 -21.77546,19.8093 -36.80392,23.12979 -10.00821,2.21128 -26.63747,1.97701 -36.80142,-0.51844 z m 245.39612,0.60497 c -22.38966,-4.46177 -44.2357,-21.28138 -54.22235,-41.74662 -6.18494,-12.67455 -8.02906,-20.65586 -8.02906,-34.74967 0,-12.74064 1.73499,-21.33917 6.39757,-31.70597 17.34811,-38.57195 62.68385,-56.48879 101.95711,-40.2938 25.84117,10.65605 44.78746,35.72229 47.93447,63.41807 1.46865,12.92502 -0.72188,18.84783 -8.33359,22.53259 -4.10092,1.98523 -5.85984,2.04911 -56.41716,2.04911 -28.70136,0 -52.18428,0.36397 -52.18428,0.80883 0,0.44485 1.58042,3.48235 3.51205,6.75 4.53218,7.66687 10.37278,12.97603 18.48795,16.80572 6.00348,2.83315 7.34026,3.07006 17.5,3.10146 10.6329,0.0329 11.27118,-0.0912 19.12586,-3.71601 9.4126,-4.34381 13.37769,-4.6394 19.41412,-1.44726 10.81206,5.71756 12.10652,21.77172 2.35518,29.20943 -11.69732,8.92198 -37.54383,12.96053 -57.49787,8.98412 z m 58.10271,-90.87417 c 0,-0.20783 -0.72424,-2.12033 -1.60942,-4.25 -4.45014,-10.70662 -14.94691,-19.96483 -26.67436,-23.52693 -14.55404,-4.42066 -30.67328,-0.98049 -41.71622,8.90308 -4.37582,3.91641 -10.1339,12.4493 -11.47296,17.00173 l -0.66182,2.25 h 41.06739 c 22.58707,0 41.06739,-0.17004 41.06739,-0.37788 z M 362.10223,375.5027 c -13.07304,-3.51578 -25.68514,-13.42676 -31.83114,-25.0139 -6.41444,-12.09323 -6.28119,-10.10869 -6.28119,-93.55055 0,-50.96565 0.34702,-76.64523 1.06133,-78.5399 1.64001,-4.34999 6.95321,-9.24192 11.31279,-10.41584 5.00234,-1.34698 10.10346,-0.43185 14.84799,2.66372 7.6837,5.01323 7.21846,-0.0375 7.77789,84.43702 0.48938,73.89684 0.54362,75.57425 2.55407,78.9966 3.15651,5.37328 7.54524,7.79354 15.56526,8.58382 11.63622,1.1466 17.88067,7.14681 17.88067,17.18131 0,6.86054 -2.83432,12.21484 -8.00404,15.12038 -4.56463,2.56547 -16.39254,2.82088 -24.88363,0.53734 z"
         id="path1017"
         sodipodi:nodetypes="ssscssscssssssssssssssssssssssssssscsscsssscsssssssssssscsssccsssscssssssssssssssssssssssssssssssscssssssssssssss" />
    </g>
    <text
       xml:space="preserve"
       style="font-style:normal;font-variant:normal;font-weight:normal;font-stretch:normal;font-size:33.3333px;line-height:1.25;font-family:Arial;-inkscape-font-specification:'Arial, Normal';font-variant-ligatures:normal;font-variant-caps:normal;font-variant-numeric:normal;font-variant-east-asian:normal"
       x="162.93912"
       y="237.77315"
       id="text15355"><tspan
         sodipodi:role="line"
         id="tspan15353"
         x="162.93912"
         y="237.77315">fine wine spirit</tspan></text>
    <circle
       style="fill:#a6253f;fill-opacity:1;stroke:none;stroke-width:5;stroke-linecap:round;stroke-linejoin:round;paint-order:fill markers stroke"
       id="path19420"
       cx="118.70225"
       cy="191.32443"
       r="15.114262" />
  </g>
</svg>
